HIERARCHY
ROOT root
{
	OFFSET	0	13.1	24.9
	CHANNELS 6  Xposition Yposition Zposition Xrotation Yrotation Zrotation
	JOINT spine_1
	{
		OFFSET	0	9.99999	0
		CHANNELS 3  Xrotation Yrotation Zrotation
		JOINT spine_2
		{
			OFFSET	0	112	-10
			CHANNELS 3  Xrotation Yrotation Zrotation
			JOINT spine_3
			{
				OFFSET	0	206.5	19.3
				CHANNELS 3  Xrotation Yrotation Zrotation
				JOINT spine_4
				{
					OFFSET	0	110.4	14.6
					CHANNELS 3  Xrotation Yrotation Zrotation
					JOINT neck_1
					{
						OFFSET	0	71.8	-50.3
						CHANNELS 3  Xrotation Yrotation Zrotation
						JOINT neck_2
						{
							OFFSET	0	86.2	-25.8
							CHANNELS 3  Xrotation Yrotation Zrotation
							JOINT head_ee
							{
								OFFSET	0	179.8	-8.7
								CHANNELS 3  Xrotation Yrotation Zrotation
								End Site
								{
									OFFSET	1	0	0
								}
							}
						}
					}
					JOINT left_clavicle
					{
						OFFSET	-43.2	22.4	-70.8
						CHANNELS 3  Xrotation Yrotation Zrotation
						JOINT left_shoulder
						{
							OFFSET	-93.9	-5.79999	48.7
							CHANNELS 3  Xrotation Yrotation Zrotation
							JOINT left_elbow
							{
								OFFSET	-291.4	-30.8	15.2
								CHANNELS 3  Xrotation Yrotation Zrotation
								JOINT left_lowarm_twist
								{
									OFFSET	-110.7	-3.89999	13.6
									CHANNELS 3  Xrotation Yrotation Zrotation
									JOINT left_hand
									{
										OFFSET	-110.7	-3.89999	13.6
										CHANNELS 3  Xrotation Yrotation Zrotation
										JOINT left_ee
										{
											OFFSET	-80.8	-5.10001	12.1
											CHANNELS 3  Xrotation Yrotation Zrotation
											End Site
											{
												OFFSET	1	0	0
											}
										}
									}
								}
							}
						}
					}
					JOINT right_clavicle
					{
						OFFSET	43.2	22.4	-70.8
						CHANNELS 3  Xrotation Yrotation Zrotation
						JOINT right_shoulder
						{
							OFFSET	93.9	-5.79999	48.7
							CHANNELS 3  Xrotation Yrotation Zrotation
							JOINT right_elbow
							{
								OFFSET	291.4	-30.8	15.2
								CHANNELS 3  Xrotation Yrotation Zrotation
								JOINT right_lowarm_twist
								{
									OFFSET	110.7	-3.89999	13.6
									CHANNELS 3  Xrotation Yrotation Zrotation
									JOINT right_hand
									{
										OFFSET	110.7	-3.89999	13.6
										CHANNELS 3  Xrotation Yrotation Zrotation
										JOINT right_ee
										{
											OFFSET	80.8	-5.10001	12.1
											CHANNELS 3  Xrotation Yrotation Zrotation
											End Site
											{
												OFFSET	1	0	0
											}
										}
									}
								}
							}
						}
					}
				}
			}
		}
	}
	JOINT left_hip
	{
		OFFSET	-82.8	-127.5	0.300001
		CHANNELS 3  Xrotation Yrotation Zrotation
		JOINT left_knee
		{
			OFFSET	-28.2	-396.7	2.2
			CHANNELS 3  Xrotation Yrotation Zrotation
			JOINT left_ankle
			{
				OFFSET	-11.7	-411.3	35.4
				CHANNELS 3  Xrotation Yrotation Zrotation
				JOINT left_toes
				{
					OFFSET	0	-60	-88.6
					CHANNELS 3  Xrotation Yrotation Zrotation
					JOINT left_foot_ee
					{
						OFFSET	-22.5	-16.5	-42.2
						CHANNELS 3  Xrotation Yrotation Zrotation
						End Site
						{
							OFFSET	1	0	0
						}
					}
				}
			}
		}
	}
	JOINT right_hip
	{
		OFFSET	82.8	-127.5	0.300001
		CHANNELS 3  Xrotation Yrotation Zrotation
		JOINT right_knee
		{
			OFFSET	28.2	-396.7	2.2
			CHANNELS 3  Xrotation Yrotation Zrotation
			JOINT right_ankle
			{
				OFFSET	11.7	-411.3	35.4
				CHANNELS 3  Xrotation Yrotation Zrotation
				JOINT right_toes
				{
					OFFSET	0	-60	-88.6
					CHANNELS 3  Xrotation Yrotation Zrotation
					JOINT right_foot_ee
					{
						OFFSET	22.5	-16.5	-42.2
						CHANNELS 3  Xrotation Yrotation Zrotation
						End Site
						{
							OFFSET	1	0	0
						}
					}
				}
			}
		}
	}
}
MOTION
Frames: 6
Frame Time: 0.02
391.555 721.904 -1204.45 -158.179512338 -36.8264051013 -175.185780474 5.14789 0.872344 3.9366 5.1563 0.620285 3.98403 5.1917 0.135019 4.02969 5.16987 0.769236 3.95801 -13.2904 4.69096 -10.0555 -13.1519 15.1915 -8.20838 -0.0 0.0 -0.0 0.798865 16.2215 3.15868 -36.5116 -31.2738 58.1514 0.580153 -16.0343 0.0817131 27.9576 0.12495 -3.53395 0.928765 19.5601 13.5615 -0.0 0.0 -0.0 11.8623 6.88535 -23.922 -31.1514 52.3099 -42.9198 0.891845 23.8353 -0.188232 49.7806 0.953149 6.09001 0.320075 11.7742 2.84711 0.0 0.0 0.0 33.5003 -5.86865 7.06623 -15.0791 0.321786 2.28502 1.77142 20.2223 -0.263752 15.2973 -0.0 -0.0 -0.0 0.0 -0.0 23.422 -22.1498 13.6163 5.03446 0.239811 0.734925 8.14425 5.12812 1.1961 -39.4927 0.0 0.0 0.0 0.0 0.0 
448.725698706 705.483 -1194.14260991 -158.539524082 -39.810022276 -172.795690871 5.102 0.61837 3.72707 5.10964 0.380125 3.7588 5.12773 -0.0809569 3.77708 5.1082 0.516153 3.74257 -9.5262 8.50859 -6.83658 -9.48455 20.6373 -4.64045 -0.0 0.0 -0.0 0.221893 12.1354 1.80481 -35.3017 -31.0618 64.9934 0.658062 -18.0553 0.104553 31.2996 0.024363 -3.94892 1.37489 20.7058 16.6924 -0.0 0.0 -0.0 11.184 4.27379 -22.3488 -28.2945 51.3024 -48.5414 0.877529 23.4944 -0.182485 46.7679 0.747259 5.76392 0.520525 15.1939 2.96588 0.0 0.0 0.0 33.2138 -2.38093 7.11458 -24.3482 0.218739 3.702 2.94545 25.7384 -0.448478 16.5321 -0.0 -0.0 -0.0 0.0 -0.0 27.4304 -25.6134 17.6885 -8.80812 -0.261217 -1.32521 16.9103 6.01617 2.40589 -37.0503 0.0 0.0 0.0 0.0 0.0 
448.6561016 705.483 -1193.76378097 -158.654345408 -39.4563327905 -172.975697319 5.102 0.61837 3.72707 5.10964 0.380125 3.7588 5.12773 -0.0809569 3.77708 5.1082 0.516153 3.74257 -9.5262 8.50859 -6.83658 -9.48455 20.6373 -4.64045 -0.0 0.0 -0.0 0.221893 12.1354 1.80481 -35.3017 -31.0618 64.9934 0.658062 -18.0553 0.104553 31.2996 0.024363 -3.94892 1.37489 20.7058 16.6924 -0.0 0.0 -0.0 11.184 4.27379 -22.3488 -28.2945 51.3024 -48.5414 0.877529 23.4944 -0.182485 46.7679 0.747259 5.76392 0.520525 15.1939 2.96588 0.0 0.0 0.0 33.2138 -2.38093 7.11458 -24.3482 0.218739 3.702 2.94545 25.7384 -0.448478 16.5321 -0.0 -0.0 -0.0 0.0 -0.0 27.4304 -25.6134 17.6885 -8.80812 -0.261217 -1.32521 16.9103 6.01617 2.40589 -37.0503 0.0 0.0 0.0 0.0 0.0 
448.458160096 705.483 -1192.75549479 -158.950925329 -38.5114422799 -173.447113579 5.102 0.61837 3.72707 5.10964 0.380125 3.7588 5.12773 -0.0809569 3.77708 5.1082 0.516153 3.74257 -9.5262 8.50859 -6.83658 -9.48455 20.6373 -4.64045 -0.0 0.0 -0.0 0.221893 12.1354 1.80481 -35.3017 -31.0618 64.9934 0.658062 -18.0553 0.104553 31.2996 0.024363 -3.94892 1.37489 20.7058 16.6924 -0.0 0.0 -0.0 11.184 4.27379 -22.3488 -28.2945 51.3024 -48.5414 0.877529 23.4944 -0.182485 46.7679 0.747259 5.76392 0.520525 15.1939 2.96588 0.0 0.0 0.0 33.2138 -2.38093 7.11458 -24.3482 0.218739 3.702 2.94545 25.7384 -0.448478 16.5321 -0.0 -0.0 -0.0 0.0 -0.0 27.4304 -25.6134 17.6885 -8.80812 -0.261217 -1.32521 16.9103 6.01617 2.40589 -37.0503 0.0 0.0 0.0 0.0 0.0 
448.333040335 705.483 -1192.16239581 -159.119448951 -37.9531749459 -173.719426798 5.102 0.61837 3.72707 5.10964 0.380125 3.7588 5.12773 -0.0809569 3.77708 5.1082 0.516153 3.74257 -9.5262 8.50859 -6.83658 -9.48455 20.6373 -4.64045 -0.0 0.0 -0.0 0.221893 12.1354 1.80481 -35.3017 -31.0618 64.9934 0.658062 -18.0553 0.104553 31.2996 0.024363 -3.94892 1.37489 20.7058 16.6924 -0.0 0.0 -0.0 11.184 4.27379 -22.3488 -28.2945 51.3024 -48.5414 0.877529 23.4944 -0.182485 46.7679 0.747259 5.76392 0.520525 15.1939 2.96588 0.0 0.0 0.0 33.2138 -2.38093 7.11458 -24.3482 0.218739 3.702 2.94545 25.7384 -0.448478 16.5321 -0.0 -0.0 -0.0 0.0 -0.0 27.4304 -25.6134 17.6885 -8.80812 -0.261217 -1.32521 16.9103 6.01617 2.40589 -37.0503 0.0 0.0 0.0 0.0 0.0 
464.60696898 702.668 -1193.76174981 -158.514658196 -36.2694423892 -173.854046861 5.68221 0.514306 3.58378 5.68931 0.285371 3.6092 5.69981 -0.120767 3.61843 5.68182 0.451837 3.59218 -9.40179 8.62009 -7.47924 -9.3303 21.2892 -5.27496 -0.0 0.0 -0.0 0.186217 13.0112 1.84285 -35.335 -30.4898 65.6999 0.649202 -17.8277 0.101824 32.2867 -0.00996642 -4.07032 1.522 20.0413 17.4062 -0.0 0.0 -0.0 10.8188 4.30596 -21.5604 -30.0743 50.7876 -48.0714 0.910858 24.2852 -0.195983 45.514 0.666689 5.62514 0.656186 15.6501 2.25262 0.0 0.0 0.0 33.7081 -1.02586 7.95814 -25.1506 0.199062 3.82356 1.50921 26.6921 -0.231817 16.6153 -0.0 -0.0 -0.0 0.0 -0.0 28.0259 -24.4538 18.572 -8.52861 -0.256075 -1.28263 16.3742 6.44223 2.33952 -37.4343 0.0 0.0 0.0 0.0 0.0 
